<?xml version="1.0" encoding="UTF-8" standalone="no"?>
<svg
   xmlns:dc="http://purl.org/dc/elements/1.1/"
   xmlns:cc="http://creativecommons.org/ns#"
   xmlns:rdf="http://www.w3.org/1999/02/22-rdf-syntax-ns#"
   xmlns:svg="http://www.w3.org/2000/svg"
   xmlns="http://www.w3.org/2000/svg"
   xmlns:sodipodi="http://sodipodi.sourceforge.net/DTD/sodipodi-0.dtd"
   xmlns:inkscape="http://www.inkscape.org/namespaces/inkscape"
   version="1.1"
   x="0px"
   y="0px"
   viewBox="0 0 88 34"
   enable-background="new 0 0 100 100"
   xml:space="preserve"
   id="svg839"
   sodipodi:docname="plank2.svg"
   inkscape:version="0.92.4 (5da689c313, 2019-01-14)"
   width="88"
   height="34"><metadata
     id="metadata845"><rdf:RDF><cc:Work
         rdf:about=""><dc:format>image/svg+xml</dc:format><dc:type
           rdf:resource="http://purl.org/dc/dcmitype/StillImage" /><dc:title></dc:title></cc:Work></rdf:RDF></metadata><defs
     id="defs843" /><sodipodi:namedview
     pagecolor="#ffffff"
     bordercolor="#666666"
     borderopacity="1"
     objecttolerance="10"
     gridtolerance="10"
     guidetolerance="10"
     inkscape:pageopacity="0"
     inkscape:pageshadow="2"
     inkscape:window-width="1920"
     inkscape:window-height="1017"
     id="namedview841"
     showgrid="false"
     inkscape:zoom="6.784"
     inkscape:cx="24.130307"
     inkscape:cy="44.811321"
     inkscape:window-x="-8"
     inkscape:window-y="-8"
     inkscape:window-maximized="1"
     inkscape:current-layer="svg839" /><circle
     cx="79.099998"
     cy="8.9420013"
     r="8.4870005"
     id="circle831" /><path
     d="M 82.876,28.532 H 70.055 V 15.901 C 70.169,14.953 70.111,13.89 69.843,12.796 69.062,9.605 66.826,7.388 64.849,7.843 l -31.592,7.276 c -1.592,0.367 -2.529,2.357 -2.426,4.784 L 2.722,26.475 c -2.128,0.498 -3.431,2.601 -2.91,4.697 0.521,2.096 2.668,3.393 4.796,2.895 l 34.005,-7.952 c 0.078,-0.018 0.146,-0.053 0.221,-0.075 l 24.272,-5.59 v 9.865 c 0,1.908 1.398,3.456 3.174,3.619 0.444,0.16 0.933,0.254 1.452,0.254 h 15.146 c 1.957,0 3.543,-1.266 3.543,-2.828 0,-1.562 -1.588,-2.828 -3.545,-2.828 z"
     id="path833"
     inkscape:connector-curvature="0" /></svg>