<?xml version="1.0" encoding="UTF-8" standalone="no"?>
<svg
   xmlns:dc="http://purl.org/dc/elements/1.1/"
   xmlns:cc="http://creativecommons.org/ns#"
   xmlns:rdf="http://www.w3.org/1999/02/22-rdf-syntax-ns#"
   xmlns:svg="http://www.w3.org/2000/svg"
   xmlns="http://www.w3.org/2000/svg"
   xmlns:sodipodi="http://sodipodi.sourceforge.net/DTD/sodipodi-0.dtd"
   xmlns:inkscape="http://www.inkscape.org/namespaces/inkscape"
   version="1.1"
   x="0px"
   y="0px"
   viewBox="0 0 100 125"
   enable-background="new 0 0 100 100"
   xml:space="preserve"
   id="svg839"
   sodipodi:docname="plank.svg"
   inkscape:version="0.92.4 (5da689c313, 2019-01-14)"><metadata
     id="metadata845"><rdf:RDF><cc:Work
         rdf:about=""><dc:format>image/svg+xml</dc:format><dc:type
           rdf:resource="http://purl.org/dc/dcmitype/StillImage" /><dc:title></dc:title></cc:Work></rdf:RDF></metadata><defs
     id="defs843" /><sodipodi:namedview
     pagecolor="#ffffff"
     bordercolor="#666666"
     borderopacity="1"
     objecttolerance="10"
     gridtolerance="10"
     guidetolerance="10"
     inkscape:pageopacity="0"
     inkscape:pageshadow="2"
     inkscape:window-width="1920"
     inkscape:window-height="1017"
     id="namedview841"
     showgrid="false"
     inkscape:zoom="6.784"
     inkscape:cx="50"
     inkscape:cy="80.188679"
     inkscape:window-x="-8"
     inkscape:window-y="-8"
     inkscape:window-maximized="1"
     inkscape:current-layer="svg839" /><circle
     cx="85.1"
     cy="39.942"
     r="8.487"
     id="circle831" /><path
     d="M88.876,59.532H76.055V46.901c0.114-0.948,0.056-2.011-0.212-3.105c-0.781-3.191-3.017-5.408-4.994-4.953l-31.592,7.276  c-1.592,0.367-2.529,2.357-2.426,4.784L8.722,57.475c-2.128,0.498-3.431,2.601-2.91,4.697s2.668,3.393,4.796,2.895l34.005-7.952  c0.078-0.018,0.146-0.053,0.221-0.075l24.272-5.59v9.865c0,1.908,1.398,3.456,3.174,3.619c0.444,0.16,0.933,0.254,1.452,0.254  h15.146c1.957,0,3.543-1.266,3.543-2.828S90.833,59.532,88.876,59.532z"
     id="path833" /></svg>